<svg xmlns="http://www.w3.org/2000/svg" viewBox="0 0 1984 1984">
    <path d="m1953.67,800.55988c30.35,0 20.42,28.7 20.42,28.7l-51.56,149.02c-3.9,-66.93 -23.54,-86.66 -101.47,-86.66c-88.57,0 -101.1,34.26 -101.1,112.82c0,84.81 17.13,111.55 101.1,111.55c21.25,0 39.79,-0.46 55.13,-3.67l-21.07,60.88c-9.93,28.68 -40.27,28.68 -40.27,28.68l-162.61,0c29.11,-11.91 39.72,-37.73 39.72,-88.81l0,-218.93l-52.63,0l2.07,32.99l-1.68,0c-13.37,-28.81 -37.59,-35.51 -68.51,-35.51c-81.46,0 -83.97,51.39 -83.97,118.66c0,64.35 8.76,105.71 83.97,105.71c26.73,0 54.74,-5.02 68.51,-33.85l1.26,0l0,41.79c0,37.61 -9.59,46.78 -54.31,46.78c-29.66,0 -40.94,-4.57 -40.94,-34.66l-49.31,0c-1.9,37.3 10.28,56.32 30.94,65.83l-534.53,0c-30.37,0 -20.44,-28.68 -20.44,-28.68l51.14,-147.85c3.11,68.26 24.03,90.64 100.62,90.64c62.68,0 102.36,-3.33 102.36,-72.28l-52.64,0c0,32.59 -20.48,32.16 -49.72,32.16c-47.21,0 -48.46,-15.03 -48.46,-62.23l150.82,0c0,-95.68 -12.1,-122.02 -102.36,-122.02c-24.46,0 -42.98,2.72 -57.18,8.19l24.4,-70.56c9.92,-28.69 40.29,-28.69 40.29,-28.69l274.94,0l0,122.82l-2.1,0c-11.28,-26.74 -39.27,-31.76 -66,-31.76c-75.22,0 -84,41.37 -84,105.71c0,67.28 2.52,118.66 84,118.66c30.91,0 55.15,-6.69 68.51,-35.51l1.66,0l-2.07,33l52.64,0l0,-312.92c0,0 494.43,0 494.43,0zm-779.8,179.64l-98.18,0c0,-38.85 2.91,-48.47 48.46,-48.47c43.04,0 49.72,3.35 49.72,48.47zm180.08,95.67c-48.05,0 -46.79,-28.82 -46.79,-78.54c0,-55.15 10.44,-65.6 46.79,-65.6c45.53,0 51.8,18.82 51.8,65.6c0,52.23 2.1,78.54 -51.8,78.54zm232.72,0c-46.78,0 -46.78,-28.82 -46.78,-78.54c0,-55.15 10.44,-65.6 46.78,-65.6c45.54,0 52.66,18.82 52.66,65.6c0,52.23 0,78.54 -52.66,78.54zm234.39,-144.14c43.04,0 49.72,3.34 49.72,48.47l-98.18,0c0,-38.87 2.92,-48.47 48.46,-48.47zm49.72,111.98c0,32.59 -20.48,32.16 -49.72,32.16c-47.21,0 -48.46,-15.03 -48.46,-62.23l137.72,0l-10.39,30.07c0,0 -29.15,0 -29.15,0z" fill="#ee2837" fill-rule="evenodd"/>
    <path d="m145.99,953.86988c0,-26.32 -13.79,-26.32 -41.8,-26.32c-27.98,0 -47.2,0 -47.2,28.84c0,21.73 5.85,22.56 51.81,24.64c51.81,2.52 97.76,-1.24 97.76,69.79c0,59.33 -46.8,65.17 -102.37,65.17c-59.73,0 -99.84,0 -99.84,-71.42l52.64,0c0.82,31.73 8.36,35.5 47.2,35.5c31.35,0 49.73,0.83 49.73,-29.25c0,-19.22 -1.25,-28.83 -54.32,-29.68c-80.64,-1.24 -95.25,-12.11 -95.25,-68.09c0,-60.16 43.45,-61.43 99.84,-61.43c43.06,0 94.44,0.83 94.44,62.25l-52.64,0zm195.1,-62.25c91.51,0 103.22,27.16 103.22,112.41c0,84.8 -11.71,111.96 -103.22,111.96c-91.49,0 -103.18,-27.16 -103.18,-111.96c0,-85.25 11.69,-112.41 103.18,-112.41zm-50.56,112.83c0,58.47 3.78,71.42 50.56,71.42c46.79,0 50.56,-12.95 50.56,-71.42c0,-59.34 -3.77,-72.72 -50.56,-72.72c-46.78,0 -50.56,13.38 -50.56,72.72zm251.11,109.03l-52.63,0l0,-313.36l52.63,0l0,313.36zm195.54,-27.56l-1.25,0c-10.45,29.24 -42.63,30.07 -68.1,30.07c-49.73,0 -81.89,-10.43 -81.89,-69.76c0,-52.66 27.56,-67.28 81.89,-67.28c26.74,0 53.06,0.42 65.59,25.08l1.67,0l0,-28.42c0,-35.52 -2.92,-48.06 -46.79,-48.06c-22.99,0 -41.37,2.09 -41.37,30.51l-52.65,0c0,-63.93 43.87,-66.44 94.02,-66.44c70.19,0 99.43,10.88 99.43,84.41l0,137.45l-52.64,0l2.09,-27.56zm-98.61,-39.69c0,30.91 12.55,33.84 48.04,33.84c28.02,0 48.48,-2.51 48.48,-33.84c0,-30.51 -22.56,-31.35 -48.48,-31.35c-26.72,0 -48.04,0 -48.04,31.35zm197.62,-152.1l51.4,0l-1.26,28.84l2.09,0c10.44,-24.24 33,-31.35 58.49,-31.35c46.39,0 57.66,27.58 57.66,68.94l0,17.56l-49.29,0l0,-11.3c0,-22.13 -2.09,-35.09 -26.75,-35.09c-31.34,0 -40.53,17.97 -39.7,46.39l0,135.36l-52.64,0c0,0 0,-219.35 0,-219.35z" fill="#040606" fill-rule="evenodd"/>
</svg>